<?xml version="1.0" encoding="utf-8"?>
<!-- Generator: Adobe Illustrator 22.0.1, SVG Export Plug-In . SVG Version: 6.00 Build 0)  -->
<svg version="1.1" id="Layer_1" xmlns="http://www.w3.org/2000/svg" xmlns:xlink="http://www.w3.org/1999/xlink" x="0px" y="0px"
	 viewBox="0 0 400 400" style="enable-background:new 0 0 400 400;" xml:space="preserve">
<style type="text/css">
	.st0{fill:#1DA1F2;}
	.st1{fill:#FFFFFF;}
</style>
<g id="Dark_Blue">
	<path class="st0" d="M350,400H50c-27.6,0-50-22.4-50-50V50C0,22.4,22.4,0,50,0h300c27.6,0,50,22.4,50,50v300
		C400,377.6,377.6,400,350,400z"/>
</g>
<g>
	<g>
		<g>
			<path class="st1" d="M241.1,341.4l-35.2-40.9c-1.4,0.1-2.8,0.1-4.3,0.1c-30.9,0-56-16.9-56-37.6v-91.4h44L112,81.1l-77.6,90.4h44
				v91.4c0,22.1,12.8,42.9,36.1,58.6s54.2,24.3,87.1,24.3C215.3,345.7,228.5,344.2,241.1,341.4z"/>
			<path class="st1" d="M198,108.6c30.8,0,56,16.9,56,37.6v91.6h-44l77.5,90.2l77.5-90.3h-44v-91.6c0-22.1-12.8-42.9-36.1-58.5
				c-23.3-15.6-54.2-24.2-87-24.2c-13.7,0-27,1.5-39.6,4.4l35.1,40.9C195,108.6,196.5,108.6,198,108.6z"/>
		</g>
	</g>
</g>
</svg>
